<svg width="270" height="150" fill="none" xmlns="http://www.w3.org/2000/svg"><path d="M27.978 108.652c10.985 0 19.89-6.453 19.89-14.414 0-7.96-8.905-14.414-19.89-14.414-10.985 0-19.89 6.453-19.89 14.414 0 7.961 8.905 14.414 19.89 14.414ZM27.978 75.047c10.985 0 19.89-4.361 19.89-9.74 0-5.38-8.905-9.74-19.89-9.74-10.985 0-19.89 4.36-19.89 9.74 0 5.379 8.905 9.74 19.89 9.74Z" fill="#BAE4F8"/><path d="M47.858 65.388H8.103v28.85h39.755v-28.85Z" fill="#BAE4F8"/><path d="M27.978 107.931c10.464 0 18.946-6.13 18.946-13.693s-8.482-13.694-18.946-13.694c-10.464 0-18.946 6.131-18.946 13.694 0 7.563 8.482 13.693 18.946 13.693ZM27.978 75.42c10.436 0 18.897-4.144 18.897-9.256 0-5.111-8.46-9.255-18.897-9.255-10.437 0-18.897 4.144-18.897 9.255 0 5.112 8.46 9.255 18.897 9.255Z" fill="#E7F6FF"/><path d="M46.895 66.108H9.064v27.41h37.83v-27.41Z" fill="#E7F6FF"/><path d="M11.179 89.17c0 5.144.115-9.697.061-7.758-.113 4.208-.095 8.152.062 8.946 2.355 6.53 8.49 9.167 15.698 7.914 1.733-.431 2.814-.988 3.814-1.691-2.04 1.11-5.72.348-7.302-.623-1.367-.838-2.747-2.227-2.804-5.2-.044-2.214.37-4.616-.705-6.687-1.116-2.147-5.525-4.478-8.826-4.98" fill="#BA00FF"/><path d="M44.757 66.672c-.041 11.858.042 19.345-.083 24.524-.02.787.074 1.75-.54 3.934-1.511 5.375-6.79 8.223-8.909 9.078-6.335 2.564-11.884 1.01-14.122.201-1.22-.441-6.784-2.904-9.007-8.492-1.135-2.848-.934-5.804-.932-7.338.003-1.103 1.116 3.902 5.922 6.882.914.566 4.309 2.608 9.816 2.069 6.145-.603 7.213-4.047 7.42-4.807.502-1.84.54-5.046.492-14.125-.035-6.627.13-6.09 1.242-7.622.662-.912 3.23-2.738 6.544-3.733" fill="#8600FF"/><path d="M27.978 64.823c10.418 0 18.863-4.143 18.863-9.254 0-5.112-8.445-9.255-18.863-9.255S9.115 50.457 9.115 55.569c0 5.111 8.445 9.254 18.863 9.254Z" fill="url('#paint0_linear_117_440')"/><path d="M46.422 56.127c.186 5.096-8.272 9.128-18.454 9.128-10.181 0-18.54-3.907-18.436-9.022" stroke="#E1E1E1" stroke-width="3.5" stroke-miterlimit="10"/><path d="M27.978 60.912c10.436 0 18.897-4.28 18.897-9.561s-8.46-9.562-18.897-9.562c-10.437 0-18.897 4.281-18.897 9.562 0 5.28 8.46 9.56 18.897 9.56Z" fill="#E1E1E1"/><path d="M27.978 60.142c9.898 0 17.922-3.936 17.922-8.792 0-4.855-8.024-8.791-17.922-8.791-9.898 0-17.922 3.936-17.922 8.791 0 4.856 8.024 8.792 17.922 8.792Z" fill="url('#paint1_linear_117_440')"/><path d="m46.412 56.642.046-5.267M9.549 56.378l-.017-4.863" stroke="#E1E1E1" stroke-width="3.5" stroke-miterlimit="10"/><path opacity=".2" d="M24.23 65.53c-.323-.037-.89-.11-1.2-.155-1.118-.154-1.885-.289-3.003-.46-.395-.096-.645-.15-.787-.192-.725-.21-.809-.23-1.176-.328l-8.652 32.75s.21.573.375 1.034c.456 1 .595 1.348 1.098 2.076a13.347 13.347 0 0 0 2.01 2.27c.745.674 1.056.882 1.823 1.424.189.132.767.465.954.595.12.015.232.182.323.231l9.968-39.143c-.686-.034-1.152-.046-1.733-.102ZM22.826 107.451c.33.078.463.059.767.115.037 0 .255.059.29.059.267 0 .34.047.593.083l10.443-42.664a6.32 6.32 0 0 1-.887.155c-.319.034-.476.078-.973.154-.081.012-.561.086-.642.096-.643.039-.932.058-1.51.11l-10.343 41.358c.365.108.75.203 1.186.299.495.12.681.159 1.076.235Z" fill="#fff"/><path d="M69.39 83.042c.054-1.8 1.747-3.282 3.706-3.282 2.012 0 3.706 1.429 3.706 3.282v18.688c0 1.853-1.694 3.282-3.706 3.282-1.959 0-3.652-1.483-3.706-3.282v-.475c-1.588 2.593-4.606 3.971-7.412 3.971-6.299 0-12.017-4.66-12.017-12.866s5.718-12.81 12.017-12.81c1.588 0 5.294.688 7.412 3.97v-.478Zm-5.983 15.617c3.336 0 6.034-2.965 6.034-6.247s-2.7-6.248-6.034-6.248c-3.706 0-5.823 2.966-5.823 6.248s2.117 6.247 5.823 6.247ZM121.961 101.73c0 1.853-1.694 3.282-3.706 3.282-1.958 0-3.652-1.483-3.706-3.282V91.566c0-3.23-1.958-4.924-4.13-4.924-2.328 0-4.181 1.43-4.181 5.03v10.058c0 1.853-1.694 3.282-3.706 3.282-1.958 0-3.652-1.483-3.706-3.282V91.407c0-3.123-1.958-4.765-4.076-4.765-2.223 0-4.289 1.27-4.289 5.03v10.058c0 1.853-1.694 3.282-3.706 3.282-1.958 0-3.652-1.483-3.706-3.282V83.042c.054-1.8 1.748-3.282 3.706-3.282 2.012 0 3.706 1.429 3.706 3.282v.583c1.164-2.593 3.811-4.076 6.458-4.076 3.917 0 6.513 1.27 8.152 4.66 1.799-3.917 5.454-4.711 7.201-4.711 5.878 0 9.635 3.76 9.689 11.223v11.009ZM144.936 91.564c0-3.23-2.328-4.87-4.554-4.87-2.328 0-4.87 1.218-4.87 4.975v10.059c0 1.853-1.693 3.282-3.706 3.282-1.958 0-3.651-1.483-3.705-3.282V69.593c.054-1.799 1.747-3.282 3.705-3.282 2.013 0 3.706 1.43 3.706 3.282v14.294c1.005-3.07 4.554-4.34 6.883-4.34 6.512 0 9.953 4.289 9.953 11.752v10.429c0 1.853-1.693 3.282-3.706 3.282-1.958 0-3.652-1.483-3.706-3.282V91.564ZM176.647 83.042c.054-1.8 1.748-3.282 3.706-3.282 2.012 0 3.706 1.429 3.706 3.282v18.688c0 1.853-1.694 3.282-3.706 3.282-1.958 0-3.652-1.483-3.706-3.282v-.475c-1.588 2.593-4.605 3.971-7.412 3.971-6.299 0-12.017-4.66-12.017-12.866s5.718-12.81 12.017-12.81c1.589 0 5.295.688 7.412 3.97v-.478Zm-5.983 15.617c3.336 0 6.035-2.965 6.035-6.247s-2.701-6.248-6.035-6.248c-3.706 0-5.823 2.966-5.823 6.248s2.117 6.247 5.823 6.247ZM202.642 98.076c1.324 0 2.593-.37 3.652-.953 1.324-.74 3.495-1.06 4.819.264 1.483 1.483 1.269 4.182-.476 5.4-2.223 1.588-5.029 2.436-7.995 2.436-7.093 0-13.554-4.975-13.554-12.76v-.159c0-7.782 6.459-12.76 13.554-12.76 2.966 0 5.77.848 7.995 2.437 1.748 1.218 1.959 3.916.476 5.399-1.324 1.324-3.495 1.005-4.819.265a7.636 7.636 0 0 0-3.652-.954c-3.176 0-6.036 2.172-6.036 5.613v.16c0 3.443 2.86 5.612 6.036 5.612ZM224.4 95.005v6.723c0 1.853-1.694 3.282-3.706 3.282-1.959 0-3.652-1.483-3.706-3.282V69.593c.054-1.799 1.747-3.282 3.706-3.282 2.012 0 3.706 1.43 3.706 3.282v17.26l5.769-5.824c1.165-1.323 3.336-1.588 4.765-.424 1.377 1.113 1.748 3.23.475 4.711l-5.769 5.613 8.152 8.524c1.377 1.483 1.269 3.706-.211 4.819-1.323 1.113-3.811.953-4.87-.319l-8.311-8.948ZM243.14 96.277c1.642-.74 3.176-.054 3.97.9 1.324 1.428 2.912 2.171 4.66 2.171 1.642 0 3.176-.265 3.176-1.534 0-1.06-.635-1.43-2.436-2.012l-2.806-1.005c-7.412-2.488-7.358-5.983-7.358-8.26 0-3.652 4.394-7.042 9.583-7.042 3.547 0 7.201 1.113 8.895 4.076.899 1.588.475 3.123-.635 3.76-1.642.953-3.177.583-4.711-.583-1.059-.794-2.012-1.113-2.966-1.113-1.588 0-2.701.53-2.701 1.483 0 .794.635 1.27 2.118 1.747l3.76 1.27c5.983 1.958 6.723 5.823 6.723 7.412 0 5.24-5.505 7.73-10.694 7.73-3.97 0-8.63-1.642-9.899-5.294-.532-1.537.103-3.177 1.321-3.706Z" fill="#BA00FF"/><defs><linearGradient id="paint0_linear_117_440" x1="9.115" y1="55.569" x2="46.843" y2="55.569" gradientUnits="userSpaceOnUse"><stop stop-color="#EFEFEF"/><stop offset="1" stop-color="#CFCFCF"/></linearGradient><linearGradient id="paint1_linear_117_440" x1="12.875" y1="44.307" x2="43.082" y2="58.393" gradientUnits="userSpaceOnUse"><stop stop-color="#F3F3F3"/><stop offset="1" stop-color="#D3D4D6"/></linearGradient></defs></svg>